<svg id="Capa_1" enable-background="new 0 0 512 512" height="512" viewBox="0 0 512 512" width="512" xmlns="http://www.w3.org/2000/svg" xmlns:xlink="http://www.w3.org/1999/xlink"><linearGradient id="lg1"><stop offset=".00000083866" stop-color="#96d1f3"/><stop offset="1" stop-color="#ccfff4"/></linearGradient><linearGradient id="SVGID_1_" gradientUnits="userSpaceOnUse" x1="256" x2="256" xlink:href="#lg1" y1="106" y2="406"/><linearGradient id="SVGID_2_" gradientUnits="userSpaceOnUse" x1="25" x2="25" xlink:href="#lg1" y1="106" y2="406"/><linearGradient id="SVGID_3_" gradientUnits="userSpaceOnUse" x1="487" x2="487" xlink:href="#lg1" y1="106" y2="406"/><linearGradient id="SVGID_4_" gradientUnits="userSpaceOnUse" x1="256" x2="256" y1="38" y2="474"><stop offset=".00000036422" stop-color="#a8abff"/><stop offset="1" stop-color="#fac8ff"/></linearGradient><linearGradient id="Outline_1_" gradientUnits="userSpaceOnUse" x1="256" x2="256" y1=".5" y2="511.5"><stop offset=".00000011981" stop-color="#174fa3"/><stop offset="1" stop-color="#b044af"/></linearGradient><g><g id="Filled_46_"><path d="m0 8h512v496h-512z" fill="#fff"/><path d="m386 406h-260c-16.569 0-30-13.431-30-30v-240c0-16.569 13.431-30 30-30h260c16.569 0 30 13.431 30 30v240c0 16.569-13.431 30-30 30z" fill="url(#SVGID_1_)"/><path d="m0 106h20c16.569 0 30 13.431 30 30v240c0 16.569-13.431 30-30 30h-20z" fill="url(#SVGID_2_)"/><path d="m512 106h-20c-16.569 0-30 13.431-30 30v240c0 16.569 13.431 30 30 30h20z" fill="url(#SVGID_3_)"/><path d="m75 76h-38v-38h38zm100-38h-38v38h38zm100 0h-38v38h38zm100 0h-38v38h38zm62 38h38v-38h-38zm-362 360h-38v38h38zm100 0h-38v38h38zm100 0h-38v38h38zm100 0h-38v38h38zm62 38h38v-38h-38zm-113.561-264.086c16.794-16.955 16.741-44.392-.118-61.282s-44.142-16.836-60.935.119l-6.386 6.447-6.385-6.447c-16.794-16.955-44.077-17.008-60.935-.119-16.86 16.89-16.913 44.326-.118 61.282l67.438 68.086z" fill="url(#SVGID_4_)"/><g fill="#fff"><path d="m187 327c-27.614 0-50 22.386-50 50v29h100v-29c0-27.614-22.386-50-50-50z"/><path d="m187 339c-13.807 0-25-11.193-25-25v-10c0-13.807 11.193-25 25-25 13.807 0 25 11.193 25 25v10c0 13.807-11.193 25-25 25z"/><path d="m325 327c27.614 0 50 22.386 50 50v29h-100v-29c0-27.614 22.386-50 50-50z"/><path d="m325 339c13.807 0 25-11.193 25-25v-10c0-13.807-11.193-25-25-25-13.807 0-25 11.193-25 25v10c0 13.807 11.193 25 25 25z"/></g></g><path id="Outline_46_" d="m88.5 136v240c0 20.678 16.822 37.5 37.5 37.5h260c20.678 0 37.5-16.822 37.5-37.5v-240c0-20.678-16.822-37.5-37.5-37.5h-260c-20.678 0-37.5 16.822-37.5 37.5zm141 262.5h-85v-21.5c0-15.876 8.666-30.126 22.424-37.47 5.532 4.359 12.502 6.97 20.076 6.97s14.544-2.611 20.076-6.97c13.759 7.344 22.424 21.594 22.424 37.47zm-60-84.5v-10c0-9.649 7.851-17.5 17.5-17.5s17.5 7.851 17.5 17.5v10c0 9.649-7.851 17.5-17.5 17.5s-17.5-7.851-17.5-17.5zm198 84.5h-85v-21.5c0-15.876 8.666-30.126 22.424-37.47 5.532 4.359 12.502 6.97 20.076 6.97s14.544-2.611 20.076-6.97c13.759 7.344 22.424 21.594 22.424 37.47zm-60-84.5v-10c0-9.649 7.851-17.5 17.5-17.5s17.5 7.851 17.5 17.5v10c0 9.649-7.851 17.5-17.5 17.5s-17.5-7.851-17.5-17.5zm101-178v240c0 12.406-10.093 22.5-22.5 22.5h-3.5v-21.5c0-20.567-10.749-39.117-28.004-49.377 1.923-4.146 3.004-8.76 3.004-13.623v-10c0-17.921-14.58-32.5-32.5-32.5s-32.5 14.579-32.5 32.5v10c0 4.863 1.081 9.477 3.004 13.623-17.255 10.26-28.004 28.81-28.004 49.377v21.5h-23v-21.5c0-20.567-10.749-39.117-28.004-49.377 1.923-4.146 3.004-8.76 3.004-13.623v-10c0-17.921-14.58-32.5-32.5-32.5s-32.5 14.579-32.5 32.5v10c0 4.863 1.081 9.477 3.004 13.623-17.255 10.26-28.004 28.81-28.004 49.377v21.5h-3.5c-12.407 0-22.5-10.094-22.5-22.5v-240c0-12.406 10.093-22.5 22.5-22.5h260c12.407 0 22.5 10.094 22.5 22.5zm-326-105.5h-53v53h53zm-15 38h-23v-23h23zm62-38v53h53v-53zm38 38h-23v-23h23zm62-38v53h53v-53zm38 38h-23v-23h23zm62-38v53h53v-53zm38 38h-23v-23h23zm144.5-68v15h-512v-15zm-29.5 30h-53v53h53zm-15 38h-23v-23h23zm-467.5 428h512v15h-512zm29.5-15h53v-53h-53zm15-38h23v23h-23zm85 38h53v-53h-53zm15-38h23v23h-23zm85 38h53v-53h-53zm15-38h23v23h-23zm138 38v-53h-53v53zm-38-38h23v23h-23zm85-15v53h53v-53zm38 38h-23v-23h23zm-447.5-53h-20v-15h20c12.407 0 22.5-10.094 22.5-22.5v-240c0-12.406-10.093-22.5-22.5-22.5h-20v-15h20c20.678 0 37.5 16.822 37.5 37.5v240c0 20.678-16.822 37.5-37.5 37.5zm472-315h20v15h-20c-12.407 0-22.5 10.094-22.5 22.5v240c0 12.406 10.093 22.5 22.5 22.5h20v15h-20c-20.678 0-37.5-16.822-37.5-37.5v-240c0-20.678 16.822-37.5 37.5-37.5zm-236 190.157 72.768-73.465c19.661-19.851 19.599-52.085-.139-71.858-9.551-9.568-22.23-14.834-35.714-14.834-.033 0-.067 0-.1 0-13.521.026-26.22 5.344-35.758 14.974l-1.057 1.066-1.057-1.067c-9.538-9.629-22.237-14.946-35.759-14.973-.034 0-.065 0-.099 0-13.483 0-26.164 5.267-35.714 14.834-19.738 19.773-19.8 52.008-.139 71.858zm-62.012-134.726c6.716-6.728 15.626-10.431 25.099-10.431h.069c9.499.019 18.423 3.758 25.13 10.528l11.714 11.828 11.714-11.827c6.707-6.771 15.631-10.511 25.129-10.529h.07c9.471 0 18.383 3.703 25.099 10.432 13.928 13.952 13.972 36.698.098 50.704l-62.11 62.707-62.11-62.707c-13.874-14.006-13.83-36.752.098-50.705z" fill="url(#Outline_1_)"/></g>
<g><g id="Filled_46_"><path d="m0 8h512v496h-512z" fill="#fff"/><path d="m386 406h-260c-16.569 0-30-13.431-30-30v-240c0-16.569 13.431-30 30-30h260c16.569 0 30 13.431 30 30v240c0 16.569-13.431 30-30 30z" fill="url(#SVGID_1_)"/><path d="m0 106h20c16.569 0 30 13.431 30 30v240c0 16.569-13.431 30-30 30h-20z" fill="url(#SVGID_2_)"/><path d="m512 106h-20c-16.569 0-30 13.431-30 30v240c0 16.569 13.431 30 30 30h20z" fill="url(#SVGID_3_)"/><path d="m75 76h-38v-38h38zm100-38h-38v38h38zm100 0h-38v38h38zm100 0h-38v38h38zm62 38h38v-38h-38zm-362 360h-38v38h38zm100 0h-38v38h38zm100 0h-38v38h38zm100 0h-38v38h38zm62 38h38v-38h-38zm-113.561-264.086c16.794-16.955 16.741-44.392-.118-61.282s-44.142-16.836-60.935.119l-6.386 6.447-6.385-6.447c-16.794-16.955-44.077-17.008-60.935-.119-16.86 16.89-16.913 44.326-.118 61.282l67.438 68.086z" fill="url(#SVGID_4_)"/><g fill="#fff"><path d="m187 327c-27.614 0-50 22.386-50 50v29h100v-29c0-27.614-22.386-50-50-50z"/><path d="m187 339c-13.807 0-25-11.193-25-25v-10c0-13.807 11.193-25 25-25 13.807 0 25 11.193 25 25v10c0 13.807-11.193 25-25 25z"/><path d="m325 327c27.614 0 50 22.386 50 50v29h-100v-29c0-27.614 22.386-50 50-50z"/><path d="m325 339c13.807 0 25-11.193 25-25v-10c0-13.807-11.193-25-25-25-13.807 0-25 11.193-25 25v10c0 13.807 11.193 25 25 25z"/></g></g><path id="Outline_46_" d="m88.5 136v240c0 20.678 16.822 37.5 37.5 37.5h260c20.678 0 37.5-16.822 37.5-37.5v-240c0-20.678-16.822-37.5-37.5-37.5h-260c-20.678 0-37.5 16.822-37.5 37.5zm141 262.5h-85v-21.5c0-15.876 8.666-30.126 22.424-37.47 5.532 4.359 12.502 6.97 20.076 6.97s14.544-2.611 20.076-6.97c13.759 7.344 22.424 21.594 22.424 37.47zm-60-84.5v-10c0-9.649 7.851-17.5 17.5-17.5s17.5 7.851 17.5 17.5v10c0 9.649-7.851 17.5-17.5 17.5s-17.5-7.851-17.5-17.5zm198 84.5h-85v-21.5c0-15.876 8.666-30.126 22.424-37.47 5.532 4.359 12.502 6.97 20.076 6.97s14.544-2.611 20.076-6.97c13.759 7.344 22.424 21.594 22.424 37.47zm-60-84.5v-10c0-9.649 7.851-17.5 17.5-17.5s17.5 7.851 17.5 17.5v10c0 9.649-7.851 17.5-17.5 17.5s-17.5-7.851-17.5-17.5zm101-178v240c0 12.406-10.093 22.5-22.5 22.5h-3.5v-21.5c0-20.567-10.749-39.117-28.004-49.377 1.923-4.146 3.004-8.76 3.004-13.623v-10c0-17.921-14.58-32.5-32.5-32.5s-32.5 14.579-32.5 32.5v10c0 4.863 1.081 9.477 3.004 13.623-17.255 10.26-28.004 28.81-28.004 49.377v21.5h-23v-21.5c0-20.567-10.749-39.117-28.004-49.377 1.923-4.146 3.004-8.76 3.004-13.623v-10c0-17.921-14.58-32.5-32.5-32.5s-32.5 14.579-32.5 32.5v10c0 4.863 1.081 9.477 3.004 13.623-17.255 10.26-28.004 28.81-28.004 49.377v21.5h-3.5c-12.407 0-22.5-10.094-22.5-22.5v-240c0-12.406 10.093-22.5 22.5-22.5h260c12.407 0 22.5 10.094 22.5 22.5zm-326-105.5h-53v53h53zm-15 38h-23v-23h23zm62-38v53h53v-53zm38 38h-23v-23h23zm62-38v53h53v-53zm38 38h-23v-23h23zm62-38v53h53v-53zm38 38h-23v-23h23zm144.5-68v15h-512v-15zm-29.5 30h-53v53h53zm-15 38h-23v-23h23zm-467.5 428h512v15h-512zm29.5-15h53v-53h-53zm15-38h23v23h-23zm85 38h53v-53h-53zm15-38h23v23h-23zm85 38h53v-53h-53zm15-38h23v23h-23zm138 38v-53h-53v53zm-38-38h23v23h-23zm85-15v53h53v-53zm38 38h-23v-23h23zm-447.5-53h-20v-15h20c12.407 0 22.5-10.094 22.5-22.5v-240c0-12.406-10.093-22.5-22.5-22.5h-20v-15h20c20.678 0 37.5 16.822 37.5 37.5v240c0 20.678-16.822 37.5-37.5 37.5zm472-315h20v15h-20c-12.407 0-22.5 10.094-22.5 22.5v240c0 12.406 10.093 22.5 22.5 22.5h20v15h-20c-20.678 0-37.5-16.822-37.5-37.5v-240c0-20.678 16.822-37.5 37.5-37.5zm-236 190.157 72.768-73.465c19.661-19.851 19.599-52.085-.139-71.858-9.551-9.568-22.23-14.834-35.714-14.834-.033 0-.067 0-.1 0-13.521.026-26.22 5.344-35.758 14.974l-1.057 1.066-1.057-1.067c-9.538-9.629-22.237-14.946-35.759-14.973-.034 0-.065 0-.099 0-13.483 0-26.164 5.267-35.714 14.834-19.738 19.773-19.8 52.008-.139 71.858zm-62.012-134.726c6.716-6.728 15.626-10.431 25.099-10.431h.069c9.499.019 18.423 3.758 25.13 10.528l11.714 11.828 11.714-11.827c6.707-6.771 15.631-10.511 25.129-10.529h.07c9.471 0 18.383 3.703 25.099 10.432 13.928 13.952 13.972 36.698.098 50.704l-62.11 62.707-62.11-62.707c-13.874-14.006-13.83-36.752.098-50.705z" fill="url(#Outline_1_)"/></g>
<g><g id="Filled_46_"><path d="m0 8h512v496h-512z" fill="#fff"/><path d="m386 406h-260c-16.569 0-30-13.431-30-30v-240c0-16.569 13.431-30 30-30h260c16.569 0 30 13.431 30 30v240c0 16.569-13.431 30-30 30z" fill="url(#SVGID_1_)"/><path d="m0 106h20c16.569 0 30 13.431 30 30v240c0 16.569-13.431 30-30 30h-20z" fill="url(#SVGID_2_)"/><path d="m512 106h-20c-16.569 0-30 13.431-30 30v240c0 16.569 13.431 30 30 30h20z" fill="url(#SVGID_3_)"/><path d="m75 76h-38v-38h38zm100-38h-38v38h38zm100 0h-38v38h38zm100 0h-38v38h38zm62 38h38v-38h-38zm-362 360h-38v38h38zm100 0h-38v38h38zm100 0h-38v38h38zm100 0h-38v38h38zm62 38h38v-38h-38zm-113.561-264.086c16.794-16.955 16.741-44.392-.118-61.282s-44.142-16.836-60.935.119l-6.386 6.447-6.385-6.447c-16.794-16.955-44.077-17.008-60.935-.119-16.86 16.89-16.913 44.326-.118 61.282l67.438 68.086z" fill="url(#SVGID_4_)"/><g fill="#fff"><path d="m187 327c-27.614 0-50 22.386-50 50v29h100v-29c0-27.614-22.386-50-50-50z"/><path d="m187 339c-13.807 0-25-11.193-25-25v-10c0-13.807 11.193-25 25-25 13.807 0 25 11.193 25 25v10c0 13.807-11.193 25-25 25z"/><path d="m325 327c27.614 0 50 22.386 50 50v29h-100v-29c0-27.614 22.386-50 50-50z"/><path d="m325 339c13.807 0 25-11.193 25-25v-10c0-13.807-11.193-25-25-25-13.807 0-25 11.193-25 25v10c0 13.807 11.193 25 25 25z"/></g></g><path id="Outline_46_" d="m88.5 136v240c0 20.678 16.822 37.5 37.5 37.5h260c20.678 0 37.5-16.822 37.5-37.5v-240c0-20.678-16.822-37.5-37.5-37.5h-260c-20.678 0-37.5 16.822-37.5 37.5zm141 262.5h-85v-21.5c0-15.876 8.666-30.126 22.424-37.47 5.532 4.359 12.502 6.97 20.076 6.97s14.544-2.611 20.076-6.97c13.759 7.344 22.424 21.594 22.424 37.47zm-60-84.5v-10c0-9.649 7.851-17.5 17.5-17.5s17.5 7.851 17.5 17.5v10c0 9.649-7.851 17.5-17.5 17.5s-17.5-7.851-17.5-17.5zm198 84.5h-85v-21.5c0-15.876 8.666-30.126 22.424-37.47 5.532 4.359 12.502 6.97 20.076 6.97s14.544-2.611 20.076-6.97c13.759 7.344 22.424 21.594 22.424 37.47zm-60-84.5v-10c0-9.649 7.851-17.5 17.5-17.5s17.5 7.851 17.5 17.5v10c0 9.649-7.851 17.5-17.5 17.5s-17.5-7.851-17.5-17.5zm101-178v240c0 12.406-10.093 22.5-22.5 22.5h-3.5v-21.5c0-20.567-10.749-39.117-28.004-49.377 1.923-4.146 3.004-8.76 3.004-13.623v-10c0-17.921-14.58-32.5-32.5-32.5s-32.5 14.579-32.5 32.5v10c0 4.863 1.081 9.477 3.004 13.623-17.255 10.26-28.004 28.81-28.004 49.377v21.5h-23v-21.5c0-20.567-10.749-39.117-28.004-49.377 1.923-4.146 3.004-8.76 3.004-13.623v-10c0-17.921-14.58-32.5-32.5-32.5s-32.5 14.579-32.5 32.5v10c0 4.863 1.081 9.477 3.004 13.623-17.255 10.26-28.004 28.81-28.004 49.377v21.5h-3.5c-12.407 0-22.5-10.094-22.5-22.5v-240c0-12.406 10.093-22.5 22.5-22.5h260c12.407 0 22.5 10.094 22.5 22.5zm-326-105.5h-53v53h53zm-15 38h-23v-23h23zm62-38v53h53v-53zm38 38h-23v-23h23zm62-38v53h53v-53zm38 38h-23v-23h23zm62-38v53h53v-53zm38 38h-23v-23h23zm144.5-68v15h-512v-15zm-29.5 30h-53v53h53zm-15 38h-23v-23h23zm-467.5 428h512v15h-512zm29.5-15h53v-53h-53zm15-38h23v23h-23zm85 38h53v-53h-53zm15-38h23v23h-23zm85 38h53v-53h-53zm15-38h23v23h-23zm138 38v-53h-53v53zm-38-38h23v23h-23zm85-15v53h53v-53zm38 38h-23v-23h23zm-447.5-53h-20v-15h20c12.407 0 22.5-10.094 22.5-22.5v-240c0-12.406-10.093-22.5-22.5-22.5h-20v-15h20c20.678 0 37.5 16.822 37.5 37.5v240c0 20.678-16.822 37.5-37.5 37.5zm472-315h20v15h-20c-12.407 0-22.5 10.094-22.5 22.5v240c0 12.406 10.093 22.5 22.5 22.5h20v15h-20c-20.678 0-37.5-16.822-37.5-37.5v-240c0-20.678 16.822-37.5 37.5-37.5zm-236 190.157 72.768-73.465c19.661-19.851 19.599-52.085-.139-71.858-9.551-9.568-22.23-14.834-35.714-14.834-.033 0-.067 0-.1 0-13.521.026-26.22 5.344-35.758 14.974l-1.057 1.066-1.057-1.067c-9.538-9.629-22.237-14.946-35.759-14.973-.034 0-.065 0-.099 0-13.483 0-26.164 5.267-35.714 14.834-19.738 19.773-19.8 52.008-.139 71.858zm-62.012-134.726c6.716-6.728 15.626-10.431 25.099-10.431h.069c9.499.019 18.423 3.758 25.13 10.528l11.714 11.828 11.714-11.827c6.707-6.771 15.631-10.511 25.129-10.529h.07c9.471 0 18.383 3.703 25.099 10.432 13.928 13.952 13.972 36.698.098 50.704l-62.11 62.707-62.11-62.707c-13.874-14.006-13.83-36.752.098-50.705z" fill="url(#Outline_1_)"/></g>
</svg>