<svg id="Capa_1" enable-background="new 0 0 512.359 512.359" height="512" viewBox="0 0 512.359 512.359" width="512" xmlns="http://www.w3.org/2000/svg" xmlns:xlink="http://www.w3.org/1999/xlink"><linearGradient id="lg1"><stop offset=".00000036422" stop-color="#a8abff"/><stop offset="1" stop-color="#fac8ff"/></linearGradient><linearGradient id="SVGID_1_" gradientUnits="userSpaceOnUse" x1="159.338" x2="159.338" xlink:href="#lg1" y1="34.18" y2="130.324"/><linearGradient id="SVGID_2_" gradientUnits="userSpaceOnUse" x1="353.022" x2="353.022" xlink:href="#lg1" y1="34.18" y2="130.324"/><linearGradient id="SVGID_3_" gradientUnits="userSpaceOnUse" x1="256.18" x2="256.18" y1="268.18" y2="448.18"><stop offset=".00000083866" stop-color="#96d1f3"/><stop offset="1" stop-color="#ccfff4"/></linearGradient><linearGradient id="Outline_1_" gradientUnits="userSpaceOnUse" x1="256.18" x2="256.18" y1="26.68" y2="485.68"><stop offset=".00000011981" stop-color="#174fa3"/><stop offset="1" stop-color="#b044af"/></linearGradient><g><g id="Filled_14_"><path d="m171.443 82.601c-80.227 0-145.263 65.037-145.263 145.263s65.037 145.263 145.263 145.263 145.263-65.037 145.263-145.263-65.037-145.263-145.263-145.263zm0 254.21c-60.074 0-108.947-48.874-108.947-108.947s48.874-108.947 108.947-108.947 108.947 48.873 108.947 108.947-48.874 108.947-108.947 108.947z" fill="#fff"/><path d="m340.917 82.601c-80.227 0-145.263 65.037-145.263 145.263s65.037 145.263 145.263 145.263 145.263-65.036 145.263-145.263-65.037-145.263-145.263-145.263zm0 254.21c-60.074 0-108.947-48.874-108.947-108.947s48.874-108.947 108.947-108.947 108.947 48.874 108.947 108.947-48.874 108.947-108.947 108.947z" fill="#fff"/><path d="m159.338 130.324-45.921-46.099c-11.436-11.48-11.4-30.057.081-41.492 11.479-11.436 30.057-11.4 41.492.08l4.348 4.365 4.348-4.365c11.435-11.48 30.013-11.516 41.492-.08 11.48 11.436 11.516 30.012.081 41.492z" fill="url(#SVGID_1_)"/><path d="m353.022 130.324-45.921-46.099c-11.436-11.48-11.4-30.057.081-41.492 11.479-11.436 30.057-11.4 41.492.08l4.348 4.365 4.348-4.365c11.435-11.48 30.013-11.516 41.492-.08 11.48 11.436 11.516 30.012.081 41.492z" fill="url(#SVGID_2_)"/><path d="m502.18 358.18s-110.138 120-246 120-246-120-246-120 110.138-120 246-120 246 120 246 120z" fill="#fff"/><circle cx="256.18" cy="358.18" fill="url(#SVGID_3_)" r="90"/><circle cx="256.18" cy="358.18" fill="#fff" r="50"/></g><path id="Outline_14_" d="m507.705 353.108c-.843-.919-15.909-17.209-41.561-37.734 18.035-25.713 27.535-55.81 27.535-87.515 0-31.791-9.674-62.267-27.977-88.132-15.672-22.149-36.599-39.51-60.981-50.701 6.644-6.913 10.292-15.965 10.273-25.579-.019-9.84-3.869-19.084-10.841-26.028-6.954-6.928-16.183-10.74-25.996-10.74-.024 0-.05 0-.074 0-9.391.019-18.238 3.526-25.062 9.905-6.824-6.379-15.672-9.886-25.062-9.905-.024 0-.049 0-.074 0-9.812 0-19.042 3.812-25.996 10.74-6.972 6.944-10.821 16.188-10.841 26.028-.012 6.558 1.687 12.854 4.872 18.391-14.093 4.326-27.409 10.671-39.759 18.934-12.246-8.171-25.638-14.572-39.727-18.922 3.189-5.54 4.891-11.84 4.878-18.403-.02-9.84-3.869-19.084-10.841-26.028-6.971-6.944-16.268-10.747-26.07-10.74-9.391.019-18.238 3.526-25.062 9.905-6.824-6.38-15.672-9.886-25.063-9.905-9.859-.011-19.099 3.795-26.069 10.74-6.972 6.944-10.822 16.188-10.841 26.028-.019 9.614 3.63 18.666 10.273 25.579-24.382 11.191-45.309 28.551-60.981 50.701-18.304 25.866-27.978 56.342-27.978 88.133 0 31.705 9.5 61.802 27.535 87.515-25.652 20.525-40.717 36.814-41.561 37.733l-4.654 5.072 4.654 5.071c1.148 1.252 28.648 31 73.386 61.148 41.483 27.956 106.063 61.28 178.14 61.28s136.656-33.325 178.14-61.28c44.737-30.149 72.237-59.896 73.386-61.148l4.654-5.071zm-29.025-125.248c0 28.343-8.417 55.26-24.404 78.31-5.441-4.086-11.252-8.265-17.394-12.463 13.241-19.291 20.478-42.369 20.478-65.847 0-50.801-33.166-95.427-80.554-110.785l16.558-16.622c51.222 21.108 85.316 71.703 85.316 127.407zm-183.989-90.258c13.571-6.977 28.554-10.793 43.892-11.145l14.438 14.494 11.668-11.714c45.236 10.884 77.669 51.731 77.669 98.622 0 20.867-6.212 40.634-17.993 57.594-26.844-17.058-61.499-34.957-100.651-45.479.317-4.004.494-8.055.494-12.115.002-32.436-10.437-64.202-29.517-90.257zm17.784-89.556c4.123-4.107 9.594-6.367 15.411-6.367h.044c5.834.012 11.313 2.294 15.431 6.427l9.661 9.699 9.661-9.699c4.117-4.133 9.597-6.415 15.431-6.427h.044c5.817 0 11.289 2.26 15.411 6.367 4.133 4.117 6.416 9.597 6.427 15.431.012 5.833-2.249 11.322-6.366 15.455l-40.607 40.765-40.606-40.765c-4.117-4.133-6.378-9.622-6.367-15.456.01-5.833 2.292-11.312 6.425-15.43zm-5.821 46.357 18.073 18.143c-13.9 1.951-27.332 6.421-39.678 13.199-4.98-5.531-10.347-10.676-16.045-15.402 11.713-7.199 24.328-12.539 37.65-15.94zm2.556 133.457c0 2.859-.089 5.714-.263 8.544-6.94-1.478-14.006-2.693-21.172-3.626.07-1.645.115-3.287.115-4.917 0-58.712-43.686-107.406-100.261-115.309l18.077-18.148c60.216 15.431 103.504 70.898 103.504 133.456zm-84.626 4.917c-7.167.933-14.232 2.149-21.173 3.626-.174-2.837-.262-5.692-.262-8.544 0-29.712 9.682-58.715 27.38-82.407 5.833 4.194 11.207 8.987 16.025 14.295-14.271 19.755-22.085 43.697-22.085 68.112.001 1.633.046 3.275.115 4.918zm-35.943 7.198c-39.151 10.522-73.804 28.421-100.648 45.478-11.781-16.959-17.993-36.726-17.993-57.593 0-46.891 32.433-87.738 77.669-98.622l11.668 11.714 14.446-14.502c15.781.36 30.683 4.338 43.907 11.14-19.103 26.069-29.541 57.787-29.541 90.27 0 4.049.176 8.101.492 12.115zm67.556-67.795c10.545 15.995 16.693 35.131 16.693 55.68 0 1.137-.027 2.281-.066 3.427-5.5-.384-11.046-.607-16.644-.607s-11.144.223-16.644.607c-.039-1.145-.066-2.289-.066-3.427 0-19.784 5.896-39.211 16.727-55.68zm-137.406-124.134c4.122-4.107 9.593-6.367 15.411-6.367h.044c5.833.012 11.313 2.294 15.431 6.427l9.661 9.699 9.661-9.699c4.117-4.133 9.597-6.415 15.431-6.427h.043c5.817 0 11.29 2.26 15.412 6.367 4.133 4.117 6.415 9.597 6.427 15.43.011 5.833-2.25 11.322-6.367 15.456l-40.606 40.765-40.609-40.765c-4.117-4.133-6.378-9.622-6.366-15.455.011-5.833 2.294-11.313 6.427-15.431zm-85.111 179.814c0-55.704 34.094-106.299 85.316-127.407l16.558 16.622c-47.388 15.358-80.554 59.984-80.554 110.785 0 23.477 7.237 46.555 20.478 65.847-6.142 4.198-11.954 8.378-17.394 12.463-15.987-23.05-24.404-49.967-24.404-78.31zm391.945 184.31c-39.68 26.692-101.287 58.51-169.445 58.51s-129.766-31.818-169.445-58.51c-32.719-22.009-56.35-44.266-66.094-53.99 9.744-9.726 33.375-31.981 66.094-53.99 39.68-26.692 101.287-58.51 169.445-58.51s129.766 31.818 169.445 58.51c32.719 22.009 56.35 44.265 66.094 53.99-9.744 9.725-33.375 31.981-66.094 53.99zm-169.445-151.49c-53.762 0-97.5 43.738-97.5 97.5s43.738 97.5 97.5 97.5 97.5-43.738 97.5-97.5-43.739-97.5-97.5-97.5zm0 180c-45.49 0-82.5-37.009-82.5-82.5s37.01-82.5 82.5-82.5 82.5 37.009 82.5 82.5-37.01 82.5-82.5 82.5zm0-140c-31.706 0-57.5 25.794-57.5 57.5s25.794 57.5 57.5 57.5 57.5-25.794 57.5-57.5-25.794-57.5-57.5-57.5zm0 100c-23.435 0-42.5-19.065-42.5-42.5s19.065-42.5 42.5-42.5 42.5 19.065 42.5 42.5-19.066 42.5-42.5 42.5z" fill="url(#Outline_1_)"/></g></svg>